<?xml version="1.0" encoding="utf-8"?>
<!-- Svg Vector Icons : http://www.onlinewebfonts.com/icon -->
<!DOCTYPE svg PUBLIC "-//W3C//DTD SVG 1.1//EN" "http://www.w3.org/Graphics/SVG/1.1/DTD/svg11.dtd">
<svg version="1.1" xmlns="http://www.w3.org/2000/svg" xmlns:xlink="http://www.w3.org/1999/xlink" x="0px" y="0px" viewBox="0 0 256 256" enable-background="new 0 0 256 256" xml:space="preserve">
<metadata> Svg Vector Icons : http://www.onlinewebfonts.com/icon </metadata>
<g><g><path fill="#000000" d="M22.9,234.6c0,3.9,0.2,7.7,0.5,11.4h15c-0.3-3.8-0.5-7.6-0.5-11.4c0-38.3,15.9-72,40-91.8c13.3,12.1,30.8,19.5,50,19.5c19.2,0,36.7-7.4,50-19.5c24.2,19.8,40.1,53.5,40.1,91.8c0,3.9-0.2,7.7-0.5,11.4h15c0.3-3.8,0.5-7.6,0.5-11.4c0-42.6-17.8-80.3-45-103c9.4-12.7,15-28.4,15-45.5c0-42-33.6-76.1-75.1-76.1S53,44.1,53,86.1c0,17.1,5.6,32.8,15,45.5C40.8,154.3,22.9,191.9,22.9,234.6z M128,25.2c33.2,0,60,27.3,60,60.9c0,33.6-26.9,60.9-60,60.9c-33.2,0-60-27.3-60-60.9C68,52.5,94.8,25.2,128,25.2z"/></g></g>
</svg>